<svg xmlns="http://www.w3.org/2000/svg" viewBox="0 0 134 18"><g fill="#228769"><path d="M1.5.2H0v17.6h8.7v-1.5H1.5M16.8 0c-5 0-9 4-9 9s4 9 9 9 9-4 9-9-4-9-9-9zm7.4 9c0 4.1-3.3 7.5-7.4 7.5S9.4 13.1 9.4 9s3.3-7.5 7.4-7.5 7.4 3.4 7.4 7.5zM33.4.2h-1.1l-7.2 17.6h1.7l2.4-5.8h7.4l2.4 5.8h1.7L33.5.4l-.1-.2zM36 10.4h-6.2l3.1-7.6 3.1 7.6zM47.1.2h-5.3v17.6h5.3c5 0 9-3.9 9-8.8s-4-8.8-9-8.8zM54.5 9c0 4.1-3.3 7.3-7.4 7.3h-3.8V1.8h3.8c4.2 0 7.4 3.1 7.4 7.2z"/></g><path fill="#66BDA5" d="M67.4 4.7c-.3-1.6-2-2.2-3.5-2.2-1.2 0-2.5.4-3.1 1.3-.3.4-.5 1-.4 1.6.1 1.8 2.1 2 3.9 2.2 2.4.3 5.3.9 6 3.7.1.4.1.8.1 1.1 0 3.3-3.3 5.3-6.4 5.3-2.7 0-5.9-1.6-6.2-4.7v-.5h2.5v.4-.1c.2 1.6 2.1 2.5 3.7 2.5 1.9 0 3.9-1 3.9-2.8 0-.2 0-.4-.1-.6-.3-1.3-2.1-1.5-3.8-1.7-2.7-.3-5.9-.9-6.1-4.5-.1-1.2.2-2.3.9-3.3C59.8.8 61.9 0 63.9 0c2.7 0 5.5 1.4 5.9 4.6l-2.4.1zM75.4 17.6h-2.5V.2h2l5.7 8.4L86.3.2h2v17.3h-2.5V5.4l-4.5 6.7H80l-4.5-6.7v12.2zM101.2 12.5H95c-.7 1.6-1.5 3.7-2.1 5.1h-2.7l7-17.6H99l7 17.6h-2.7l-2.1-5.1zm-5.3-2.4h4.3L98.1 4l-2.2 6.1zM110.9 8.8h2.9c2.1 0 3.1-1.5 3.1-3s-1-3-3.1-3H110v14.8h-2.5V.2h6.3c3.8 0 5.7 2.8 5.7 5.5 0 2.5-1.5 4.8-4.5 5.3l5.5 6.5h-3.2L111 9.9V8.8zM126.1 17.6V2.8h-5.3V.2h13v2.5h-5.2v14.9h-2.5z"/></svg>